<svg id="Layer_1" data-name="Layer 1" xmlns="http://www.w3.org/2000/svg" viewBox="0 0 284.37 44.5"><title>hello2</title>
<path d="M.8,29.46c7.81,1.9,13.91-2.81,18.8-8.42C24.67,15.22,29.76,9.1,30.43,1.12a1.14,1.14,0,0,0-2.1-.57A153.47,153.47,0,0,0,15,33.21c-.36,1.32,1.33,1.83,2.06.87,4.25-5.61,7.73-.6,12,.52a10,10,0,0,0,5.66-.21A10.54,10.54,0,0,0,42,26.25a1.14,1.14,0,0,0-1.08-1.42,4.41,4.41,0,0,0-3.64,6.31c1.92,4.47,8.14,3.3,11.63,2,6.21-2.34,11.13-7,15.46-11.88,3.94-4.44,8.54-9.35,7-15.71A1.13,1.13,0,0,0,69.53,5,42,42,0,0,0,59.12,24.75C58.23,29,57.66,34.22,63,35.41s11.34-2.68,15.19-5.74A34.43,34.43,0,0,0,89.21,14a1.12,1.12,0,0,0-.51-1.27c-7.88-3.86-13.56,15.81-10.57,21,2.13,3.7,8,3.92,11.68,3.3a18.09,18.09,0,0,0,12-8,1.13,1.13,0,0,0-1.27-1.65c-2.7.86-4.82,4.26-2.56,6.81s5.92,1.09,7.08-1.57a1.2,1.2,0,0,0-.18-1.37,8.63,8.63,0,0,0-3-2l.23,1.77,7.18-6c1.11-.93-.49-2.52-1.59-1.59l-7.18,6a1.13,1.13,0,0,0,.23,1.77q2.19,1.38.36-1.62l-1.27-1.66a15.71,15.71,0,0,1-11.58,7,13,13,0,0,1-5.16-.43c-3.8-1.43-3.66-3.34-3.4-6.38a24.37,24.37,0,0,1,2.41-8.42c.4-.82,4.08-6.22,4.43-5,.64,2.18-5,8.56-6.1,9.77C77.25,28,61.2,40.12,60.84,28.17,60.62,20.55,66.23,12,71.12,6.63l-1.88-.49c1.56,6.66-6,13.41-10.36,17.63A37.6,37.6,0,0,1,52.25,29a23.76,23.76,0,0,1-4.69,2.24l-1.51.46q-4.61,1.9-5.14-4.62l-1.09-1.43A8.53,8.53,0,0,1,33,32.52c-3.59.7-5.47-1.7-8.52-2.77-3.71-1.31-7.08.22-9.33,3.19l2.05.87A150.19,150.19,0,0,1,30.28,1.69l-2.1-.57c-.57,6.8-4.85,12.05-9.1,17.07-4.5,5.31-10,11-17.68,9.1C0,27-.61,29.12.8,29.46Z" style="fill:#fff"/><path d="M110.41,35.78a1.5,1.5,0,0,1,1.46,2c-.68,1.28,1.27,2.42,1.94,1.13a3.76,3.76,0,0,0-3.4-5.41c-1.44.09-1.45,2.34,0,2.25Z" style="fill:#fff"/><path d="M129.8,25.82c-1.53,2.32-3.13,6.33.24,8,1.53.76,3.06.13,4.46-.57,3.62-1.81,7-5.14,10.24-7.54L143.09,25c.64,2.65-2.27,5.42-3.17,7.83A1.13,1.13,0,0,0,141.8,34a39.67,39.67,0,0,1,11.1-8.63l-1.65-1.27-2.39,6.16c-.44,1.13,1.12,1.76,1.88,1.09a92,92,0,0,1,9.93-7.65L159,23c.49,3.42-2.59,5.7-1.45,9.3a8.42,8.42,0,0,0,3.55,4.5c5.72,3.56,12.39-.15,17-3.71,1.13-.87,0-2.83-1.14-1.94-4.11,3.17-11.32,7.74-15.79,2.56-3.11-3.6.57-7.34,0-11.31a1.13,1.13,0,0,0-1.65-.68,97.31,97.31,0,0,0-10.39,8l1.88,1.1,2.39-6.16c.38-1-.86-1.68-1.65-1.27a41.23,41.23,0,0,0-11.56,9l1.88,1.1c1.31-3.51,4.12-5.12,3.17-9a1.13,1.13,0,0,0-1.65-.67l-6.85,5.09c-.63.47-2,2-2.84,2.07-1.36.12-3.22-2.38-2.17-4,.8-1.21-1.15-2.34-1.95-1.14Z" style="fill:#fff"/><path d="M134.34,18.21a1.13,1.13,0,0,0,0-2.25,1.13,1.13,0,0,0,0,2.25Z" style="fill:#fff"/><path d="M141,7a4.75,4.75,0,0,1,.07,3.46c-.47,1.38,1.7,2,2.17.6a7.06,7.06,0,0,0-.3-5.19c-.57-1.33-2.51-.18-1.94,1.13Z" style="fill:#fff"/><path d="M206,23.15c5.3-2.47,21-13.51,14.72-20.8-7.06-8.25-18.48,7.48-21.9,12.23a70.32,70.32,0,0,0-8.68,16.16c-1.24,3.27-3.62,8.38-1.31,11.71,2.53,3.65,7.26,1.62,10.39.09a68.2,68.2,0,0,0,17-12l-1.6-1.59a3.94,3.94,0,0,0,.88,6.13c4.18,2.57,8.49-2.43,11.87-4l-1.69-1L225,33.91a1.13,1.13,0,0,0,1.76,1.36c1-1,4.79-5.06,6.51-2.87.28.36-.11,2,0,2.43a2.78,2.78,0,0,0,2.2,2.36c1.48.33,2.45-.52,3.61-1.27,3.33-2.15,6.39-5.08,9.49-7.54a1.13,1.13,0,0,0-.5-1.88c-2.79-.53-5.59,1.9-4.33,4.92,1.59,3.81,6.52,2.67,9.06.82,4.64-3.37,8.75-8.93,12-13.62,1.82-2.62,7.48-9.7,3.89-12.69a1.14,1.14,0,0,0-1.59,0c-5,5.23-10.54,15.92-7.89,23.28,2,5.42,8.7,7.5,12.27,2.43A1.13,1.13,0,0,0,270.19,30c-3,1.14-4,5.13-.72,6.81,4.42,2.27,6.85-3,6-6.52l-1.88,1.09a25.09,25.09,0,0,0,9.42,5.4c1.39.44,2-1.73.6-2.17a22.32,22.32,0,0,1-8.43-4.82,1.13,1.13,0,0,0-1.88,1.09l-2.49,1.29-1.27-1.65q-6.76,3.57-8.4-2.56l-.34-2.5a19.28,19.28,0,0,1,1.65-7c1.5-4,3.23-7.76,6.24-10.89h-1.59c1.37,1.14-1.82,6.15-2.48,7.25a56.83,56.83,0,0,1-5.06,7c-1.39,1.68-2.86,3.29-4.34,4.89-.72.77-1.43,1.58-2.19,2.31a8.25,8.25,0,0,1-1.55,1.34q-2,2.45-4-1.64l-.5-1.88c-1.12.89-9.83,9.08-11.52,6.7-.84-1.17.19-3.06-1.15-4.52a1.1,1.1,0,0,0-1.09-.29,22.22,22.22,0,0,0-8.06,5L226.89,35a10.45,10.45,0,0,0,1-5,1.14,1.14,0,0,0-1.69-1,20.15,20.15,0,0,0-3.1,1.85l-1.18.86c-1.63,1.42-3.55,1-5.74-1.26a1.13,1.13,0,0,0-1.6-1.59,68.26,68.26,0,0,1-9.84,7.86c-1.45.94-2.93,1.81-4.44,2.63-3,1.64-4.21,2.69-7.57,1.18-2.53-.12-3.34-1.25-2.41-3.37.23-.93.49-1.86.81-2.77a61.43,61.43,0,0,1,2.23-5.89A68.54,68.54,0,0,1,198,19.82c3.35-5.4,8.63-13.51,14.59-16.38s7.16,2.22,5.27,6.65a16.42,16.42,0,0,1-3.5,4.48,30.88,30.88,0,0,1-9.52,6.64c-1.31.61-.17,2.55,1.14,1.94Z" style="fill:#fff"/><path d="M220.66,22.91a1.13,1.13,0,0,0,0-2.25,1.13,1.13,0,0,0,0,2.25Z" style="fill:#fff"/>
</svg>
