<svg id="Layer_1" data-name="Layer 1" xmlns="http://www.w3.org/2000/svg" viewBox="0 0 257.07 34.95"><title>hello3</title>
<path d="M121.31,27.75c-1.31.41-.9,2.63.38,3.13s2.7-.11,3.94-.71l9.22-4.43.34,5.3a6.91,6.91,0,0,1,10.19-1.25c2.47-1.62,5.64-3.28,8.19-1.79,1.85,1.09,2.53,3.43,4.08,4.91a5.83,5.83,0,0,0,8.68-1.23" transform="translate(-13.93 -2.22)" style="fill:none;stroke:#fff;stroke-miterlimit:10;stroke-width:1.5px"/><path d="M124.4,21.72a.24.24,0,1,0,.23.08" transform="translate(-13.93 -2.22)" style="fill:none;stroke:#fff;stroke-miterlimit:10;stroke-width:1.5px"/>
<path d="M22.63,21.46A23.87,23.87,0,0,0,41.06,5.94c.28-.83.48-1.88-.15-2.5A1.78,1.78,0,0,0,39.7,3a6.15,6.15,0,0,0-3.8,1.59A56.11,56.11,0,0,0,15.38,34.64a18.92,18.92,0,0,1,15.48-5.17C30.57,31.52,30.4,34,32,35.34a5.06,5.06,0,0,0,3.64,1,11.52,11.52,0,0,0,8.76-4.8c-.18-1.18-2.31-.77-2.45.42s1,2.17,2.08,2.62c4,1.58,8.36-.72,11.74-3.3A59.91,59.91,0,0,0,67,20.08c1.81-2.36,3.53-5.24,2.86-8.14A14.6,14.6,0,0,0,61,24a6.54,6.54,0,0,0,.55,3.61c1.58,3,5.86,3,9.07,2A27.5,27.5,0,0,0,85.55,17.9c.77-1.25,1.18-3.32-.21-3.81a2.16,2.16,0,0,0-2,.58c-2.15,1.77-2.73,4.78-3,7.55A71.2,71.2,0,0,0,80,31a6.25,6.25,0,0,0,.39,2.47c.91,2.12,3.59,2.72,5.9,2.89a15.1,15.1,0,0,0,6.28-.57,6.48,6.48,0,0,0,4.26-4.36,2.07,2.07,0,0,0-.1,3.1,2,2,0,0,0,3-.75,1.88,1.88,0,0,0-1.77-2.42A5.72,5.72,0,0,0,103.66,28" transform="translate(-13.93 -2.22)" style="fill:none;stroke:#fff;stroke-miterlimit:10;stroke-width:1.5px"/><path d="M105.31,33.64a3.93,3.93,0,0,1,.51,2.49" transform="translate(-13.93 -2.22)" style="fill:none;stroke:#fff;stroke-miterlimit:10;stroke-width:1.5px"/><path d="M191.24,25.63c3.18-1.3,6.26-3.2,8-6.12s2-7-.29-9.6c-2.7-3.09-8-2.82-11.12-.2s-4.49,6.9-4.69,11a14.22,14.22,0,0,0,.83,6.11c2,4.85,7.26,7.31,12.09,9.32a37.28,37.28,0,0,1,12.28-7.49c-.15,2.66,3.36,4.09,5.93,3.4s4.68-2.57,7.21-3.38l.08,3.13a13.55,13.55,0,0,1,6.93-2.52,2.77,2.77,0,0,1,1.59.23,6.25,6.25,0,0,1,1.23,1.33c1.79,1.95,5,1,7.42-.08l5.74-2.57c-1,.1-2.37.48-2.43,1.53s1.28,1.6,2.33,1.51c2.13-.19,3.94-1.58,5.56-3a98.37,98.37,0,0,0,7.25-6.9c3.18-3.36,6.28-7.33,6.37-12-2.19-.8-4.59.35-6.45,1.76a23.19,23.19,0,0,0-9,16.17,2,2,0,0,0,.28,1.49,1.91,1.91,0,0,0,1.08.53A15.76,15.76,0,0,0,261,27.64a4.67,4.67,0,0,0-2.73,3.21A3.24,3.24,0,0,0,261.18,28a9.78,9.78,0,0,0,9.72,4.9" transform="translate(-13.93 -2.22)" style="fill:none;stroke:#fff;stroke-miterlimit:10;stroke-width:1.5px"/><path d="M209.67,25.65a4.43,4.43,0,0,1-1.22-3.11,2.17,2.17,0,0,1,1.2,2.3,3.81,3.81,0,0,1,2.39-1.7c.14.24-.08.52-.28.7l-2.82,2.55" transform="translate(-13.93 -2.22)" style="fill:none;stroke:#fff;stroke-miterlimit:10;stroke-width:1.5px"/>
</svg>
