<svg id="Layer_1" data-name="Layer 1" xmlns="http://www.w3.org/2000/svg" viewBox="0 0 252.47 34.89"><title>hello</title><path d="M142.46,27.26h.13c.86.09,1.29.51,1.29,1.24q0,2.92-4.45,10.5a64.66,64.66,0,0,1-4.78,6.49q-3.26,3.94-3.25,4.46a14.47,14.47,0,0,0-.47,3.09c0,.12,0,.17-.13.17h0a10.48,10.48,0,0,0,1.48-2.41,4.14,4.14,0,0,1,3.06-1.8q2,0,3.38,3.63a4.72,4.72,0,0,0,1.86,2.49,1.53,1.53,0,0,0,.68.14h.35a4.8,4.8,0,0,0,3.12-1.74A14.22,14.22,0,0,0,146.62,50c.36-1.5.85-2.25,1.48-2.25s.94.37.94.93a16.52,16.52,0,0,1-2.89,6.1,6.28,6.28,0,0,1-4.92,2.31q-3.12,0-4.67-4.32-1-1.83-1.29-1.83l-.14-.06h0q-1.4,0-3.23,5l-.54,3a2.41,2.41,0,0,1-.8.47c-.78,0-1.21-.71-1.31-2.14A20.52,20.52,0,0,1,129,55a19,19,0,0,1,1.49-8.38q4.89-11.62,7.31-14.76a25.81,25.81,0,0,1,2.92-3.74A2.83,2.83,0,0,1,142.46,27.26Zm-8.78,17a.22.22,0,0,0-.24-.22c.19,0,1-1,2.34-3.07a39.52,39.52,0,0,0,4.58-7.62,21.91,21.91,0,0,0,1.44-3.81v-.06s0,.06,0,.06a17.85,17.85,0,0,0-2,2.59c-2.19,3.21-3.28,5-3.28,5.45q-2.1,4.41-2.82,6.48Z" transform="translate(-128.97 -24.39)" style="fill:#fff"/><path d="M153.93,43h.26c1.44.2,2.16.74,2.16,1.63q-.33,1.88-3.4,3.87A47.26,47.26,0,0,1,148.41,50a.15.15,0,0,0-.09.13v.06A4.54,4.54,0,0,0,150.24,53a6.37,6.37,0,0,0,3.1.72h.53q5.81,0,10.72-5,.74-1.32,1.41-1.32h.06c.42,0,.74.29,1,.86q-.41,1.64-5,5c-3.12,1.4-5.52,2.1-7.22,2.1-.19,0-.71,0-1.57.11a12.78,12.78,0,0,1-3.94-1,10.52,10.52,0,0,1-2.49-2.77c-.22,0-.41-.64-.57-1.91,0-.72.55-1.92,1.67-3.61q2.52-2.37,4-2.69A4.51,4.51,0,0,1,153.93,43Zm-5,5.07s-.06,0-.19,0h.06a9.32,9.32,0,0,0,3.15-1.07c1.49-1.11,2.23-1.84,2.23-2.19,0-.07-.06-.11-.16-.11h-.13a7.82,7.82,0,0,0-4.34,2.51A2.74,2.74,0,0,0,148.9,48Z" transform="translate(-128.97 -24.39)" style="fill:#fff"/><path d="M176.56,24.39h.19a1.5,1.5,0,0,1,.88,1.53V26q0,3.12-3.84,12.34a64.24,64.24,0,0,1-5.73,10,2.3,2.3,0,0,0-.8,1.52v.17a5.88,5.88,0,0,0,1.14,2.64,3.72,3.72,0,0,0,2.54,1.16h.74a12.21,12.21,0,0,0,4.49-1.7q2.58-2.32,3.63-3.44c.49-.6.91-.9,1.27-.9h.21a1,1,0,0,1,.69.93q-.19,1-4.37,4.48a11.16,11.16,0,0,1-6.55,2.36q-4.4,0-5.86-4.85a14.74,14.74,0,0,1-.25-1.48,17.93,17.93,0,0,1,1.47-6.94,8.54,8.54,0,0,1,1-2.58,53.45,53.45,0,0,1,4.35-9.91,22.72,22.72,0,0,1,1.84-2.92,10.49,10.49,0,0,0,.87-1.43A2.76,2.76,0,0,1,176.56,24.39Zm-9.4,21.88a.7.7,0,0,1,0,.31l0,.07H167a35.73,35.73,0,0,0,2.54-4.1,72.34,72.34,0,0,0,4.66-10.47,25.06,25.06,0,0,0,1.15-4.62c0-.34-.05-.44-.05-.29h.3c-.3,0-1.33,1.69-3.07,5.08A84,84,0,0,0,168,43.44C167.63,44.41,167.37,45.35,167.16,46.27Z" transform="translate(-128.97 -24.39)" style="fill:#fff"/><path d="M192,24.39h.19a1.5,1.5,0,0,1,.88,1.53V26q0,3.12-3.84,12.34a64.24,64.24,0,0,1-5.73,10,2.3,2.3,0,0,0-.8,1.52v.17a5.88,5.88,0,0,0,1.14,2.64,3.72,3.72,0,0,0,2.54,1.16h.74a12.21,12.21,0,0,0,4.49-1.7q2.58-2.32,3.63-3.44c.49-.6.91-.9,1.27-.9h.21a1,1,0,0,1,.69.93q-.19,1-4.37,4.48a11.16,11.16,0,0,1-6.55,2.36q-4.4,0-5.86-4.85a14.74,14.74,0,0,1-.25-1.48,17.93,17.93,0,0,1,1.47-6.94,8.54,8.54,0,0,1,1-2.58,53.45,53.45,0,0,1,4.35-9.91A22.72,22.72,0,0,1,189,26.91a9.56,9.56,0,0,0,.87-1.43A2.76,2.76,0,0,1,192,24.39Zm-9.4,21.88a.7.7,0,0,1,0,.31l0,.07h-.14a35.73,35.73,0,0,0,2.54-4.1,72.34,72.34,0,0,0,4.66-10.47,25.06,25.06,0,0,0,1.15-4.62c0-.34-.05-.44-.05-.29h.3q-.45,0-3.07,5.08a84,84,0,0,0-4.6,11.19C183,44.41,182.78,45.35,182.57,46.27Z" transform="translate(-128.97 -24.39)" style="fill:#fff"/><path d="M199,47.28A3,3,0,0,1,202.05,49a3.65,3.65,0,0,1,.26,1.32,8.07,8.07,0,0,1-.23,1.8c0,.12.09.18.28.18h.88q4.57,0,10.1-4.22a2.56,2.56,0,0,1,1.26-.47h.21a.93.93,0,0,1,.57.85c0,.49-.9,1.27-2.56,2.35a19.15,19.15,0,0,1-10.73,3.34,4.37,4.37,0,0,0-.61-.06c-.2,0-.53.36-1,1.08a5.38,5.38,0,0,1-4.16,2.26h-.53A2.83,2.83,0,0,1,193,55.18a5.33,5.33,0,0,1-.07-.91V54c0-2.47,1.28-4.55,3.83-6.26A6.94,6.94,0,0,1,199,47.28ZM194.75,54a1.65,1.65,0,0,0,1,1.69,1,1,0,0,0,.48.09c1,0,2-.69,3-2.07l0-.17a10.81,10.81,0,0,0-1.34-.71,3.94,3.94,0,0,1-1.71-2.36l.1.06h-.07q-.42.19-1.29,2.46S194.83,53.36,194.75,54Zm3.4-3.72c0,.47.41.93,1.22,1.38a1.51,1.51,0,0,0,.64.25h.06a10.14,10.14,0,0,0,.28-1.48c0-.87-.34-1.3-1-1.3S198.15,49.59,198.15,50.28Z" transform="translate(-128.97 -24.39)" style="fill:#fff"/><path d="M215.41,51.85c.52,0,1.12.4,1.81,1.2a3.89,3.89,0,0,1,.78,2.27v.18A2.6,2.6,0,0,1,216.68,58h-.45q-.25,0-.66-.54v-.36l.59-1.35s0-.15.05-.43a.41.41,0,0,0,0-.19l-1,.18c-.79-.15-1.18-.52-1.18-1.13v-.38C214.21,52.49,214.67,51.85,215.41,51.85Z" transform="translate(-128.97 -24.39)" style="fill:#fff"/><path d="M234,47.62h.1c.61.13.92.44.92,1V49a7.46,7.46,0,0,1-1.42,2.87,6.34,6.34,0,0,0-.92,3c0,.42.33.63,1,.63q2.7,0,7.54-4.37a1.92,1.92,0,0,1,.91-.77c.74-.71,1.55-1.55,2.4-2.54h.61c.57.08.86.38.86.9v.11c0,.33-.48,1-1.44,1.94a8.5,8.5,0,0,1-1.92,1.76q-5.38,4.94-9.08,4.93c-1.88,0-2.82-.88-2.82-2.65a11.13,11.13,0,0,1,.79-3.37c1.19-2.45,1.8-3.67,1.84-3.67S233.57,47.64,234,47.62Zm3.88-6.92c.5,0,.79.35.89,1a1.78,1.78,0,0,1-1.36,1.7,2.3,2.3,0,0,1-.95.22c-.86-.17-1.29-.59-1.29-1.24s.7-1.33,2.09-1.64A2.28,2.28,0,0,1,237.88,40.7Z" transform="translate(-128.97 -24.39)" style="fill:#fff"/><path d="M246.86,37.55c.25,0,.58.25,1,.74A28.85,28.85,0,0,1,246.64,43a1.65,1.65,0,0,1-.7.37c-.51,0-.83-.37-1-1.1v-.09a19.26,19.26,0,0,1,1.29-4.09Z" transform="translate(-128.97 -24.39)" style="fill:#fff"/><path d="M249,46.78c.53.12.79.32.79.6v.18a13.91,13.91,0,0,1-1.14,2.49A10.91,10.91,0,0,0,248,52v-.19c-.16,0,.17-.36,1-1.09a4.4,4.4,0,0,1,2.16-.9h.58c1.3,0,2.18.85,2.62,2.55,0,0-.06,0-.16,0h-.06A8.35,8.35,0,0,0,255,51a4.2,4.2,0,0,1,2.68-1.17,3.39,3.39,0,0,1,3,2.07A5.85,5.85,0,0,0,262,53.59a5.94,5.94,0,0,0,2.77,1.34h.17a6.59,6.59,0,0,0,4.68-2.2,10.42,10.42,0,0,0,2.68-3c.66-1.26,1.28-1.89,1.84-1.89h.06c.43,0,.73.28.91.85A15.58,15.58,0,0,1,272,53.2q-3.71,3.51-6.3,3.51h-.82q-2.53,0-5.28-2.82c-1-1.52-1.58-2.27-1.87-2.27h-.12c-.82,0-1.59,1-2.3,3-.66,1.52-1.14,2.28-1.42,2.28l-.29.06c-.77,0-1.19-1-1.28-3-.19-1.54-.49-2.3-.88-2.3,0-.08,0-.12,0-.12h-.06q-1.38,0-5.35,5.73c-.52.55-.93.83-1.21.83h-.09a.93.93,0,0,1-.92-1,69.86,69.86,0,0,1,3.72-8.83C247.93,47.26,248.43,46.78,249,46.78Z" transform="translate(-128.97 -24.39)" style="fill:#fff"/><path d="M292.28,24.39h.19a1.5,1.5,0,0,1,.88,1.53V26q0,3.12-3.84,12.34a64.84,64.84,0,0,1-5.72,10,2.27,2.27,0,0,0-.81,1.52v.17a5.88,5.88,0,0,0,1.14,2.64,3.72,3.72,0,0,0,2.54,1.16h.75a12.25,12.25,0,0,0,4.48-1.7q2.6-2.32,3.63-3.44c.49-.6.91-.9,1.27-.9H297a1,1,0,0,1,.69.93c-.13.69-1.58,2.18-4.37,4.48a11.13,11.13,0,0,1-6.54,2.36c-2.93,0-4.89-1.62-5.86-4.85a12.34,12.34,0,0,1-.25-1.48,18.1,18.1,0,0,1,1.46-6.94,8.54,8.54,0,0,1,1-2.58,54.82,54.82,0,0,1,4.35-9.91,24.21,24.21,0,0,1,1.84-2.92,9.56,9.56,0,0,0,.87-1.43A2.76,2.76,0,0,1,292.28,24.39Zm-9.4,21.88a.7.7,0,0,1,0,.31l0,.07h-.13a38.15,38.15,0,0,0,2.53-4.1,72.34,72.34,0,0,0,4.66-10.47,25.49,25.49,0,0,0,1.16-4.62c0-.34-.06-.44-.06-.29h.31c-.31,0-1.33,1.69-3.08,5.08a84,84,0,0,0-4.6,11.19C283.36,44.41,283.09,45.35,282.88,46.27Z" transform="translate(-128.97 -24.39)" style="fill:#fff"/><path d="M297.29,47.62h.11c.61.13.92.44.92,1V49a7.46,7.46,0,0,1-1.42,2.87,6.25,6.25,0,0,0-.93,3q0,.63,1,.63c1.79,0,4.31-1.46,7.54-4.37a1.92,1.92,0,0,1,.91-.77c.74-.71,1.54-1.55,2.4-2.54h.6q.87.12.87.9v.11c0,.33-.48,1-1.44,1.94a9,9,0,0,1-1.92,1.76q-5.39,4.94-9.08,4.93c-1.89,0-2.83-.88-2.83-2.65a11.45,11.45,0,0,1,.79-3.37c1.19-2.45,1.81-3.67,1.85-3.67S296.86,47.64,297.29,47.62Zm3.88-6.92c.5,0,.8.35.9,1a1.79,1.79,0,0,1-1.36,1.7,2.36,2.36,0,0,1-1,.22c-.86-.17-1.29-.59-1.29-1.24s.7-1.33,2.1-1.64A2.25,2.25,0,0,1,301.17,40.7Z" transform="translate(-128.97 -24.39)" style="fill:#fff"/><path d="M331.16,47.57h.34a1.06,1.06,0,0,1,.61.9v.1a16.05,16.05,0,0,1-3.73,6.18q-2.37,2.31-3.75,2.57a11.38,11.38,0,0,1-3.37.71,4.91,4.91,0,0,1-5-3.53,45.94,45.94,0,0,0-1.53-4.35.94.94,0,0,0-.6-.32h-.27c-.87,0-1.78.62-2.71,1.86-.57.64-2.06,2.68-4.46,6.09a1.46,1.46,0,0,1-.92.55h-.12c-.52,0-.84-.35-1-1a81.21,81.21,0,0,1,2.51-9,1.37,1.37,0,0,1,1-.66,1.29,1.29,0,0,1,.77.65v.48a40,40,0,0,0-1.12,4.15v.39a.23.23,0,0,0-.25-.22h-.07a31.11,31.11,0,0,0,2.3-2.85A5.13,5.13,0,0,1,313.76,48H314c1.55,0,2.58.91,3.11,2.73.92,3,1.6,4.59,2,4.69a3.11,3.11,0,0,0,2.23.79h.05q2.77,0,5.47-2.76,2.6-3.06,3-4.8C330.27,48,330.7,47.57,331.16,47.57Z" transform="translate(-128.97 -24.39)" style="fill:#fff"/><path d="M346.37,29.21A1.58,1.58,0,0,1,348.14,31s.06.17.06.5c-.16,2-.3,3.44-.41,4.29,0-.22,0-.34,0-.34q0,2.93-3.42,12.82a13.1,13.1,0,0,0-1.32,3v.1q.93,2.46,4.61,2.52h.53q5.81,0,10.72-4.95.74-1.32,1.41-1.32h.06q.63,0,1,.87-.4,1.62-5,5c-3.12,1.39-5.52,2.09-7.22,2.09-.19,0-.71,0-1.57.12a13.21,13.21,0,0,1-3.79-.91A7.76,7.76,0,0,1,342,53.14c.15.07.09.27-.19.6a9.38,9.38,0,0,1-5.54,3.66,4.28,4.28,0,0,1-2,.31,5.41,5.41,0,0,1-5.63-4,2.34,2.34,0,0,1-.07-.57v-.65q.06-2.65,2.91-5.58A9.72,9.72,0,0,1,336.62,45l1.5.07,2.78.75c-.95.81-1.34.78-1.17-.08,0,0,0-.25-.06-.66a26.34,26.34,0,0,1,1.85-8.89l1.83-3.82a8.83,8.83,0,0,1,2.19-3A3.22,3.22,0,0,1,346.37,29.21ZM330.5,52.48a3.51,3.51,0,0,0,2.65,3.46,5.83,5.83,0,0,0,.9.1,8.69,8.69,0,0,0,6.22-3.65,3.61,3.61,0,0,0,.46-1.14,23.39,23.39,0,0,1-.88-3.9l-1.12-.14a2.33,2.33,0,0,0-1.39-.4q-4.57,0-6.68,4.56A6.08,6.08,0,0,0,330.5,52.48ZM341.81,43c0-.22,0-.34.06-.34,0,.36-.06,1.31-.18,2.83.21,2.14.32,3.21.34,3.21s.2-.26.37-.78q1.22-2.33,3.48-11.39l.29-5c0-.13,0-.19.08-.19-.34.09-1.25,1.78-2.71,5.05A26.69,26.69,0,0,0,341.81,43Z" transform="translate(-128.97 -24.39)" style="fill:#fff"/><path d="M366.13,43.5l.79,0a2.46,2.46,0,0,1,2.41,1.52,29.9,29.9,0,0,1,.78,3.32A3.91,3.91,0,0,0,374,50.93q2.65,0,5.86-3.08a4.1,4.1,0,0,1,.91-.14c.45.21.68.49.68.83,0,.5-.47,1.08-1.42,1.76a11.7,11.7,0,0,1-4.86,2.42c-.43,0-.76.05-1,.05h-.23a5.87,5.87,0,0,1-5.67-3.56l-.12-.07a18.57,18.57,0,0,1-.93,1.77q-2.22,3-4.82,3h-.06a3.27,3.27,0,0,1-3-2.23,3.59,3.59,0,0,1-.21-1.13,8,8,0,0,1,2.52-5.14A6.56,6.56,0,0,1,366.13,43.5ZM361,50.24a1.73,1.73,0,0,0,1.28,1.86h.29q2.08,0,4.24-4.47a6.71,6.71,0,0,0,.61-2v-.35a2.72,2.72,0,0,1-.91,0,5.23,5.23,0,0,0-4.82,3.07A3.34,3.34,0,0,0,361,50.24Z" transform="translate(-128.97 -24.39)" style="fill:#fff"/></svg>